# xmcd
#
# Track frame offsets:
#	150
#	12711
#	25787
#	37119
#	48382
#	59475
#	71025
#	83867
#	94746
#	111981
#	130478
#	145030
#	156643
#	170779
#	185400
#	201225
#	211272
#	225947
#	234304
#	246927
#
# Disc length: 3452 seconds
#
# Revision: 1
# Processed by: cddbd v1.5.2PL0 Copyright (c) Steve Scherf et al.
# Submitted via: audiograbber 1.83.01
#
DISCID=270d7a14
DTITLE=Various Artist - Country Love Songs For The Good Times
DYEAR=2001
DGENRE=Country
TTITLE0=Charlie Rich - Behind Closed Doors
TTITLE1=Slim Whitman - Read Sails In The Sunset
TTITLE2=Patsy Cline - Just Out Of Reach
TTITLE3=Bobby Bare - Please Don´t Tell Me How The Story Ends
TTITLE4=Roger Miller - Husbands And Wives
TTITLE5=Sammi Smith - Help Me Make It Through The Night
TTITLE6=Bill Anderson - Still
TTITLE7=Billie Jo Spears - Misty Blue
TTITLE8=Ray Price - For The Good Times
TTITLE9=Lynn Anderson - Midnight Train To Georgia
TTITLE10=Willie Nelson - Will You Remember Mine
TTITLE11=Bobby Bare - Shame On Me
TTITLE12=George Jones - Ain´t It Funny What A Fool Will Do
TTITLE13=Glen Campbell - Crying
TTITLE14=The Bellamy Brothers - Sugar Daddy
TTITLE15=Johnny Cash - Goodbye Little Darlin´
TTITLE16=Johnny Paycheck - A Good Year For The Roses
TTITLE17=Johnny Rodriguez - That´s The Way Love Goes
TTITLE18=Dickey Lee - Never Ending Song Of Love
TTITLE19=Jack Greene - There Goes My Everything
EXTD=
EXTT0=Charlie Rich
EXTT1=Slim Whitman
EXTT2=Patsy Cline
EXTT3=Bobby Bare
EXTT4=Roger Miller
EXTT5=Sammy Smith
EXTT6=Bill Anderson
EXTT7=Billie Jo Spears
EXTT8=Ray Price
EXTT9=Lynn Anderson
EXTT10=Willie Nelson
EXTT11=Bobby Bare
EXTT12=George Jones
EXTT13=Glen Campbell
EXTT14=The Bellamy Brothers
EXTT15=Jonny Cash
EXTT16=Jonny Paycheck
EXTT17=Jonny Rodriguez
EXTT18=
EXTT19=Jack Greene
PLAYORDER=
